<svg width="162" height="163" viewBox="0 0 162 163" fill="none" xmlns="http://www.w3.org/2000/svg">
<path d="M77 16C79.907 16 82.4519 14.4497 83.8528 12.1304C112.836 13.8706 137.164 32.8765 146.692 59H120.202C111.888 45.2168 96.7703 36 79.5 36C53.2665 36 32 57.2666 32 83.5C32 109.733 53.2665 131 79.5 131C97.2014 131 112.641 121.317 120.812 106.959C124.849 106.553 128 103.145 128 99C128 94.5815 124.418 91 120 91C115.582 91 112 94.5815 112 99C112 100.731 112.55 102.334 113.485 103.644C106.601 115.233 93.9575 123 79.5 123C57.6848 123 40 105.315 40 83.5C40 61.6846 57.6848 44 79.5 44C95.4252 44 109.149 53.4243 115.399 67H157.285C149.989 32.4331 120.234 6.14746 84.0007 4.12549C82.6362 1.66553 80.0126 0 77 0C72.5817 0 69 3.58154 69 8C69 12.4185 72.5817 16 77 16Z" fill="#fff"/>
<path d="M2.0752 65.376C0.785767 63.9556 0 62.0693 0 60C0 55.5815 3.58173 52 8 52C12.4183 52 16 55.5815 16 60C16 63.8257 13.3147 67.0244 9.72614 67.8135C8.59619 72.8613 8 78.1113 8 83.5C8 122.988 40.0117 155 79.5 155C111.779 155 139.061 133.611 147.948 104.232C146.734 102.83 146 101 146 99C146 94.5815 149.582 91 154 91C158.418 91 162 94.5815 162 99C162 102.901 159.208 106.149 155.514 106.857C145.537 139.365 115.278 163 79.5 163C35.5934 163 0 127.407 0 83.5C0 77.2651 0.717773 71.1978 2.0752 65.376Z" fill="#fff"/>
</svg>
